<?xml version="1.0" encoding="UTF-8"?>
<svg width="138px" height="23px" viewBox="0 0 138 23" version="1.1" xmlns="http://www.w3.org/2000/svg" xmlns:xlink="http://www.w3.org/1999/xlink">
    <title>SAPPHIRE</title>
    <g id="Dashboard" stroke="none" stroke-width="1" fill="none" fill-rule="evenodd">
        <g id="Dashboard-/-Default-/-Menu-Type-/-Mega-2" transform="translate(-105.000000, -29.000000)" fill="#212121" fill-rule="nonzero">
            <g id="topbar" transform="translate(0.000000, -2.000000)">
                <path d="M113.624,53.14 C117.404,53.112 121.184,51.488 121.184,47.428 C121.184,44.236 117.992,42.752 115.08,41.604 C112.896,40.736 109.984,39.812 109.984,37.292 C109.984,35.5 111.636,34.436 113.54,34.436 C115.976,34.436 117.992,35.78 119.336,37.236 L121.408,35.248 C119.448,33.092 116.984,31.86 113.904,31.86 C109.536,31.86 106.876,34.772 106.876,37.572 C106.876,41.128 110.124,42.5 112.84,43.648 C116.144,45.048 118.076,45.804 118.076,47.624 C118.076,49.696 116.06,50.536 113.624,50.564 C111.384,50.564 109.116,49.248 107.912,47.736 L105.84,49.808 C107.8,51.936 110.852,53.168 113.624,53.14 Z M126.664,53 L128.54,48.212 L137.388,48.212 L139.264,53 L142.54,53 L133.916,32 L132.012,32 L123.388,53 L126.664,53 Z M136.38,45.636 L129.548,45.636 L132.964,36.984 L136.38,45.636 Z M148.048,53 L148.048,47.456 L153.088,47.456 C157.176,47.428 160.48,43.984 160.48,39.728 C160.48,35.472 157.176,32 153.088,32 L144.94,32 L144.94,53 L148.048,53 Z M153.032,44.88 L148.048,44.88 L148.048,34.576 L153.032,34.576 C155.44,34.576 157.372,36.9 157.372,39.728 C157.372,42.556 155.44,44.88 153.032,44.88 Z M166.548,53 L166.548,47.456 L171.588,47.456 C175.676,47.428 178.98,43.984 178.98,39.728 C178.98,35.472 175.676,32 171.588,32 L163.44,32 L163.44,53 L166.548,53 Z M171.532,44.88 L166.548,44.88 L166.548,34.576 L171.532,34.576 C173.94,34.576 175.872,36.9 175.872,39.728 C175.872,42.556 173.94,44.88 171.532,44.88 Z M185.328,53 L185.328,43.788 L195.212,43.788 L195.212,53 L198.32,53 L198.32,32 L195.212,32 L195.212,41.212 L185.328,41.212 L185.328,32 L182.22,32 L182.22,53 L185.328,53 Z M205.228,53 L205.228,32 L202.12,32 L202.12,53 L205.228,53 Z M212.136,53 L212.136,46.896 L216.924,46.896 L221.04,53 L224.596,53 L220.088,46.336 C222.748,45.216 224.596,42.64 224.596,39.448 C224.596,35.22 221.292,32.028 217.176,32 L209.028,32 L209.028,53 L212.136,53 Z M217.148,44.32 L212.136,44.32 L212.136,34.576 L217.148,34.576 C219.528,34.576 221.488,36.62 221.488,39.448 C221.488,42.304 219.528,44.32 217.148,44.32 Z M242.34,53 L242.34,50.424 L230.944,50.424 L230.944,43.396 L239.82,43.396 L239.82,40.792 L230.944,40.792 L230.944,34.576 L241.808,34.576 L241.808,32 L227.836,32 L227.836,53 L242.34,53 Z" id="SAPPHIRE"></path>
            </g>
        </g>
    </g>
</svg>